<?xml version="1.0" encoding="UTF-8"?>
<svg id="Layer_2" data-name="Layer 2" xmlns="http://www.w3.org/2000/svg" viewBox="0 0 86.87 21.55">
  <defs>
    <style>
      .cls-1 {
        fill: #fff;
      }

      .cls-2 {
        fill: #e81899;
        fill-rule: evenodd;
      }
    </style>
  </defs>
  <g id="Layer_1-2" data-name="Layer 1">
    <path class="cls-2" d="M13.05,3.14c-.2-.32-.66-.32-.85,0l-3.09,5c-.12.2-.09.45.07.62l3.1,3.08c.19.19.51.19.7,0l3.1-3.07c.17-.16.2-.42.07-.62l-3.11-5.02ZM14.42,13.96c-.2-.2-.2-.51,0-.71l3.64-3.61c.5-.49.59-1.26.22-1.85L13.9.71c-.59-.95-1.97-.95-2.55,0l-4.36,7.06c-.37.59-.28,1.36.22,1.85l3.65,3.62c.2.2.2.51,0,.71l-1.45,1.43c-.18.17-.45.19-.65.05l-3.03-2.25c-.72-.53-1.73-.33-2.19.44L.21,19.29c-.59,1,.13,2.26,1.29,2.26h3.92c.4,0,.78-.15,1.06-.43l2.51-2.49c.18-.17.45-.19.65-.05l2.09,1.55c.53.4,1.26.39,1.79,0l2.08-1.56c.2-.15.48-.13.65.05l2.52,2.5c.28.28.66.44,1.06.44h3.92c1.16,0,1.88-1.26,1.29-2.26l-3.35-5.69c-.45-.77-1.48-.97-2.19-.44l-3.01,2.26c-.2.15-.48.13-.65-.05l-1.42-1.41ZM12.99,15.36c-.19-.19-.51-.19-.7,0l-1.14,1.13c-.22.22-.19.57.05.76l1.13.84c.18.13.42.13.6,0l1.13-.85c.24-.18.27-.54.05-.75l-1.12-1.11ZM18.04,16.75c-.24.18-.27.54-.05.75l1.91,1.9c.09.09.22.15.35.15h1.76c.39,0,.63-.42.43-.76l-1.9-3.22c-.15-.26-.49-.32-.73-.15l-1.77,1.32ZM7.26,17.52c.22-.22.19-.57-.05-.76l-1.77-1.32c-.24-.18-.58-.11-.73.15l-1.88,3.2c-.2.33.04.75.43.75h1.76c.13,0,.26-.05.35-.14l1.9-1.88Z"/>
    <path class="cls-1" d="M78.57,17.38h-2.47V5.45h2.3l.11,1.46c.96-1.12,2.19-1.68,3.69-1.68,1.35,0,2.47.43,3.35,1.3.88.87,1.32,2.09,1.32,3.67v7.17h-2.5v-6.84c0-.96-.26-1.7-.77-2.21-.51-.52-1.17-.79-1.98-.79-.4,0-.77.06-1.12.18-.34.12-.66.3-.96.54-.3.24-.53.57-.7,1-.17.42-.26.91-.26,1.46v6.67Z"/>
    <path class="cls-1" d="M67.03,5.24c1.81,0,3.31.59,4.49,1.76,1.19,1.16,1.78,2.63,1.78,4.41s-.59,3.27-1.78,4.44c-1.18,1.16-2.68,1.75-4.49,1.75s-3.3-.59-4.49-1.76c-1.18-1.17-1.77-2.65-1.77-4.43s.59-3.24,1.78-4.41c1.19-1.17,2.68-1.76,4.48-1.76ZM67.03,7.51c-1.09,0-1.97.36-2.65,1.08-.68.72-1.02,1.66-1.02,2.81s.34,2.1,1.02,2.82c.68.73,1.56,1.09,2.65,1.09s1.97-.36,2.65-1.09c.69-.73,1.03-1.67,1.03-2.82s-.34-2.09-1.02-2.81c-.68-.72-1.57-1.08-2.66-1.08Z"/>
    <path class="cls-1" d="M58.32,1.56c0,.45-.15.83-.46,1.14-.3.3-.69.46-1.15.46s-.82-.15-1.12-.46c-.3-.31-.46-.69-.46-1.14s.15-.82.46-1.11C55.9.15,56.27,0,56.72,0,57.19,0,57.57.15,57.87.45c.3.3.46.67.46,1.11ZM57.97,17.38h-2.47V5.45h2.47v11.93Z"/>
    <path class="cls-1" d="M42.09,5.45h2.95l2.81,3.94,2.61-3.94h2.77l-4.02,5.86,4.3,6.07h-2.93l-3.02-4.24-2.73,4.24h-2.7l4.03-6.19-4.08-5.74Z"/>
    <path class="cls-1" d="M40.37,17.38h-2.24l-.12-1.95c-.47.68-1.07,1.21-1.8,1.59-.73.38-1.52.56-2.37.56-1.12,0-2.04-.31-2.75-.93-.71-.62-1.07-1.45-1.07-2.5,0-1.19.43-2.07,1.3-2.65.84-.55,1.94-.99,3.3-1.31l3.29-.73c-.09-.71-.38-1.24-.84-1.59-.47-.36-1.08-.54-1.84-.54-1.65,0-2.63.69-2.95,2.06l-2.29-.43c.2-1.12.77-2.02,1.73-2.71.96-.69,2.18-1.03,3.64-1.03s2.75.41,3.64,1.24c.9.82,1.35,1.93,1.35,3.34v7.56ZM32.52,13.99c0,.48.15.85.46,1.11.31.27.74.4,1.28.4.64,0,1.23-.14,1.78-.41.55-.27,1.02-.71,1.38-1.3.37-.59.55-1.3.55-2.12v-.27l-3.29.77c-.73.17-1.27.39-1.63.67-.35.27-.53.66-.53,1.15Z"/>
  </g>
</svg>