<svg width="1038" height="357" viewBox="0 0 1038 357" fill="none" xmlns="http://www.w3.org/2000/svg">
<path d="M0.0221368 59.6361C0.0221368 45.4996 4.36095 34.5266 13.0607 26.673C21.7605 18.8415 32.9617 14.9258 46.6865 14.9258C60.4114 14.9258 72.4538 18.8415 80.9986 26.673C89.5213 34.5045 93.8158 45.4996 93.8158 59.6361V255.999C93.8158 261.839 95.3432 265.91 98.3981 268.21C101.431 270.511 106.478 269.671 113.495 265.666C128.748 256.751 142.318 249.605 154.205 244.229C166.093 238.853 179.197 236.154 193.542 236.154C213.377 236.154 228.319 241.375 238.369 251.817C248.441 262.259 253.467 275.953 253.467 292.833C253.467 310.974 248.043 324.956 237.218 334.778C226.393 344.623 209.082 349.534 185.285 349.534H91.0266C70.9042 349.534 54.1245 347.167 40.7096 342.388C27.2947 337.632 17.156 328.96 10.2936 316.35C3.43121 303.762 0 285.466 0 261.507V59.6361H0.0221368Z" fill="white"/>
<path d="M328.349 351.434C314.343 351.434 302.944 347.143 294.108 338.54C285.271 329.936 280.875 319.033 280.875 305.829V62.0382C280.875 48.525 285.205 37.1571 293.887 27.9344C302.568 18.7118 314.056 14.1116 328.349 14.1116C343.569 14.1116 355.521 18.6455 364.202 27.7133C372.884 36.7811 377.214 47.9057 377.214 61.1314V305.807C377.214 319.011 372.575 329.936 363.297 338.518C354.018 347.121 342.376 351.412 328.371 351.412L328.349 351.434Z" fill="white"/>
<path d="M673.164 348.511C671.172 348.046 668.295 347.16 664.555 345.854C660.793 344.548 657.074 343.198 653.401 341.825C644.659 338.46 637.776 336.18 632.708 335.051C627.64 333.9 622.372 333.325 616.839 333.325C613.918 333.325 610.93 333.524 607.876 333.9C604.8 334.276 600.75 335.118 595.704 336.424C590.636 337.73 583.753 339.612 575.011 342.069C569.965 343.286 564.321 344.061 558.124 344.371C551.928 344.681 547.501 344.836 544.912 344.836C538.627 344.836 533.027 344.526 528.136 343.906C484.006 336.092 449.746 309.881 425.38 265.274C412.809 239.374 406.523 212.322 406.523 184.097C406.523 174.29 407.298 164.24 408.825 153.99C412.654 129.617 419.714 108.764 429.983 91.4521C434.431 83.6376 438.725 76.9964 442.863 71.5507C447.002 66.1049 451.893 60.482 457.581 54.6599C471.834 39.8057 487.237 29.0691 503.791 22.4722C522.338 15.2776 540.176 11.6692 557.35 11.6692C590.901 11.6692 621.642 25.4607 649.528 53.066C653.821 57.3606 657.008 60.7698 659.066 63.2934C661.147 65.8171 663.78 69.4697 666.989 74.2071C686.133 103.96 695.716 136.745 695.716 172.608C695.716 185.956 694.41 199.659 691.799 213.761C690.56 219.273 688.501 226.556 685.602 235.61C682.681 244.665 680.003 252.169 677.546 258.146C676.174 261.666 675.488 264.81 675.488 267.577C675.488 269.414 675.798 271.185 676.417 272.868C677.192 275.17 678.741 277.051 681.131 278.513C683.5 279.974 687.682 281.767 693.658 283.914C701.16 286.526 706.826 289.05 710.677 291.507C714.506 293.964 717.427 297.019 719.419 300.694C721.411 304.369 722.407 308.354 722.407 312.648C722.407 315.415 722.031 318.249 721.256 321.149C719.264 328.809 715.125 335.715 708.84 341.847C702.71 347.515 695.273 350.348 686.532 350.348C682.393 350.348 677.945 349.728 673.208 348.511H673.164ZM444.678 152.396C446.67 151.179 447.976 149.408 448.595 147.105C449.215 144.803 449.525 142.966 449.525 141.593C449.525 139.911 449.149 138.383 448.374 136.989C447.754 135.926 446.537 134.886 444.7 133.889C442.863 132.893 441.336 132.384 440.097 132.384C437.485 132.384 435.471 133.757 434.011 136.524C432.55 139.291 431.82 141.66 431.82 143.652C431.82 144.892 431.975 146.021 432.285 147.105C433.347 149.873 434.697 151.621 436.312 152.396C437.928 153.171 439.256 153.547 440.34 153.547C441.713 153.547 443.173 153.171 444.7 152.396H444.678ZM456.629 116.047C457.249 115.449 457.846 114.409 458.466 112.947C459.086 111.486 459.683 110.07 460.303 108.697C462.605 101.79 465.969 94.4185 470.417 86.5155C474.866 78.6346 479.004 72.4583 482.833 68.0087C485.732 65.1087 487.193 62.5629 487.193 60.4156C487.193 59.4858 486.972 58.6446 486.507 57.8919C484.67 54.837 482.523 53.2874 480.066 53.2874C476.548 53.2874 472.475 56.2759 467.894 62.253C462.383 69.7575 457.05 78.701 451.915 89.0391C446.781 99.3994 444.213 106.395 444.213 110.07C444.523 113.589 445.63 115.825 447.555 116.733C449.481 117.663 450.897 118.105 451.805 118.105C453.487 118.105 455.102 117.419 456.629 116.025V116.047ZM564.653 252.413C566.955 251.195 569.323 248.804 571.78 245.284C574.236 241.765 576.294 237.846 577.976 233.552C582.27 221.597 584.992 209.134 586.143 196.184C587.294 183.233 587.869 173.316 587.869 166.409C587.869 158.285 587.338 151.09 586.254 144.803C583.952 133.912 580.632 124.348 576.25 116.069C571.89 107.789 567.331 102.277 562.573 99.5101C560.426 98.7353 558.434 98.359 556.597 98.359C545.399 98.359 536.989 112.239 531.301 139.977C529.619 148.876 528.778 157.753 528.778 166.653V170.792C528.933 181.064 530.239 193.173 532.695 207.12C536.059 227.663 540.884 241.233 547.169 247.83C550.843 252.125 554.605 254.272 558.434 254.272C560.426 254.272 562.484 253.652 564.631 252.435L564.653 252.413Z" fill="white"/>
<path d="M1020.65 227.394C1020.41 228.191 1020.19 228.965 1019.95 229.762C1019.44 230.448 1019.35 231.289 1019.08 232.085C1018.06 235.227 1017.07 238.392 1016.07 241.534C1015.48 242.507 1014.97 243.503 1014.83 244.654C1014.19 245.937 1013.53 247.221 1012.89 248.504C1012.38 249.5 1011.78 250.451 1011.71 251.602C1011.34 252.686 1010.98 253.771 1010.61 254.877C1009.44 257.422 1008.26 259.989 1007.07 262.533L1007.02 262.6C1006.85 262.666 1006.78 262.777 1006.85 262.954C1006.62 262.998 1006.6 263.131 1006.65 263.308C1006.2 264.149 1005.78 264.989 1005.34 265.83C1004.74 266.317 1004.52 267.069 1004.12 267.689C1002.77 269.88 1001.14 271.827 999.611 273.885C999.257 273.885 999.102 274.062 999.102 274.416C998.88 274.372 998.814 274.527 998.792 274.704C998.46 275.146 998.128 275.567 997.818 276.009C997.354 276.319 997.022 276.717 996.822 277.226C996.269 277.846 995.716 278.465 995.163 279.085C991.423 283.223 986.998 286.52 982.218 289.33C981.333 289.839 980.293 290.06 979.563 290.857C979.364 290.791 979.209 290.857 979.121 291.056C978.258 291.211 977.439 291.477 976.753 292.052C976.465 291.985 976.266 292.052 976.155 292.34H976.178C975.912 292.229 975.735 292.317 975.647 292.583H975.669C975.403 292.494 975.226 292.583 975.16 292.848C974.894 292.76 974.717 292.848 974.651 293.114C974.208 293.092 973.854 293.202 973.655 293.623C973.434 293.557 973.301 293.623 973.257 293.844C971.73 294.176 970.292 294.862 968.721 294.995C968.521 294.995 968.367 295.216 968.389 295.46C965.114 303.514 960.644 310.971 956.728 318.694C954.869 322.345 952.125 325.399 949.647 328.607C949.293 329.072 948.917 329.514 948.629 330.023C945.752 335.091 941.548 338.941 937.278 342.791C933.538 346.155 929.444 348.898 925.174 351.465C917.938 355.824 910.238 357.152 901.962 355.161C898.333 354.298 894.638 353.722 890.965 353.014C889.526 352.749 888.066 352.771 886.628 352.815C882.667 352.904 878.75 352.549 874.834 351.996C870.962 351.443 867.51 349.739 864.036 348.035C859.92 346.022 857.309 342.503 854.277 339.383C847.462 332.325 842.638 323.982 838.567 315.176C837.726 313.361 836.62 311.701 835.646 309.975C833.478 306.103 831.464 302.12 829.76 298.026C827.503 292.583 823.963 288.069 820.445 283.466C815.886 277.492 811.085 271.716 806.77 265.565C800.751 257.023 794.732 248.438 789.931 239.144C786.479 232.484 782.607 226.022 779.487 219.185C777.584 215.047 775.858 210.798 773.911 206.682C772.694 204.093 771.145 201.659 769.928 199.07C765.568 189.932 762.581 180.417 761.408 170.326C760.081 158.953 760.7 147.712 762.825 136.493C763.953 130.54 765.104 124.61 766.741 118.746C768.6 112.108 770.99 105.646 773.092 99.0745C775.415 91.8386 778.026 84.6913 780.792 77.6325C784.045 69.3788 788.315 61.6783 793.161 54.2434C799.025 45.2152 805.553 36.6959 812.257 28.2873C814.249 25.7869 816.749 23.729 818.873 21.3613C822.126 17.7545 825.976 14.8778 829.782 11.9569C834.385 8.43861 839.806 6.93391 845.404 5.8939C850.206 5.00879 854.786 5.73901 859.389 7.13306C864.677 8.72627 869.59 11.3816 875.033 12.5101C879.038 13.351 882.955 14.8114 887.115 14.7008C889.106 14.6565 891.098 14.5459 893.089 14.3689C895.235 14.1697 897.094 13.2182 898.975 12.1782C903.688 9.56713 908.18 6.53561 913.114 4.32282C919.576 1.42407 926.413 -0.124886 933.538 0.00788176C938.583 0.0963933 943.34 1.53471 948.076 3.17217C956.174 5.96029 963.543 10.1425 970.69 14.8114C977.704 19.3919 984.011 24.7911 990.029 30.6108C996.181 36.5853 1001.85 42.9803 1007.11 49.7071C1011.36 55.1285 1015.03 60.9702 1018.64 66.8341C1021.83 72.0121 1024.24 77.544 1026.63 83.1203C1028.51 87.5016 1030.66 91.7723 1032.16 96.3085C1034.26 102.703 1035.21 109.298 1036.08 115.936C1036.78 121.379 1036.67 126.867 1036.94 132.333C1037.12 136.072 1037.32 139.79 1037.21 143.529C1037.16 145.565 1037.05 147.601 1036.96 149.637C1036.72 153.244 1036.45 156.85 1036.21 160.435C1034.97 168.799 1033.78 177.164 1031.78 185.373C1030.63 190.087 1029.39 194.755 1028.04 199.402C1026.3 205.488 1024.73 211.617 1023.07 217.746C1022.82 218.123 1022.65 218.521 1022.78 218.986M940.043 123.681C932.741 123.282 925.705 124.721 918.668 126.248C912.827 127.509 907.472 130.076 902.117 132.62C900.391 133.439 898.931 134.877 898.001 136.493C894.66 142.312 894.35 148.597 896.098 154.925C897.382 159.572 899.506 163.909 901.94 168.091C902.427 168.932 902.692 169.839 902.692 170.813C902.692 175.172 903.245 179.509 903.024 183.891C902.936 185.595 903.113 187.298 903.245 188.98C903.577 193.14 904.44 197.278 903.909 201.504C903.688 203.275 903.577 205.045 903.091 206.771C901.807 211.418 901.343 216.131 901.829 220.955C901.962 222.238 901.94 223.522 901.542 224.783C901.431 225.115 901.276 225.425 900.9 225.447C900.48 225.447 900.435 225.071 900.325 224.739C900.081 223.898 900.103 223.013 900.059 222.15C899.926 219.583 900.059 216.972 899.152 214.516C898.223 212.015 897.492 209.471 896.917 206.882C896.098 203.142 895.479 199.358 896.32 195.53C897.514 190.241 898.754 184.975 899.152 179.509C899.528 174.619 898.488 170.371 895.302 166.697C889.504 159.97 886.207 152.004 883.928 143.552C883.441 141.781 882.601 140.653 881.162 139.679C878.264 137.732 875.121 136.205 871.913 134.855C863.748 131.403 855.472 128.549 846.466 128.018C840.138 127.642 834.23 129.08 828.543 131.47C821.883 134.258 816.351 138.794 811.616 144.215C808.009 148.353 805.641 153.155 804.446 158.51C804.292 159.174 804.004 159.484 803.473 159.793C800.596 161.453 798.406 163.799 797.189 166.919C796.215 169.419 796.237 172.052 796.989 174.641C798.295 179.089 799.269 183.625 801.039 187.94C802.411 191.281 803.406 194.755 803.362 198.451C803.296 203.253 803.362 208.032 804.07 212.834C805.508 222.482 808.651 231.399 814.337 239.365C817.081 243.238 819.449 247.309 821.197 251.757C822.989 256.315 824.538 260.962 826.198 265.565C829.118 273.686 832.393 281.674 835.381 289.773C837.527 295.614 840.249 301.235 843.302 306.656C846.732 312.764 850.803 318.495 854.255 324.602C856.888 329.227 860.606 333.099 863.881 337.281C865.164 338.919 866.868 340.357 868.66 341.419C873.373 344.185 878.507 345.889 884.039 345.668C888.818 345.491 893.487 346.11 898.09 347.305C902.073 348.345 906.034 348.766 910.127 347.703C915.615 346.287 920.483 343.654 924.842 340.158C928.338 337.37 931.524 334.205 934.843 331.174C938.627 327.722 941.592 323.496 945.221 319.933C951.019 314.224 954.78 307.32 957.834 299.996C960.556 293.446 963.145 286.83 966.397 280.523C968.632 276.208 971.597 272.336 974.164 268.22C975.425 266.206 977.195 264.547 978.147 262.356C980.36 257.311 983.524 252.708 985.228 247.42C985.825 245.517 986.511 243.658 987.197 241.777C989.72 234.873 991.401 227.792 992.021 220.468C992.419 215.777 991.932 211.086 992.021 206.395C992.087 202.788 992.087 199.181 991.91 195.574C991.777 192.675 991.578 189.755 991.954 186.878C992.596 181.833 992.552 176.832 991.379 171.897C989.985 166.033 986.511 161.232 982.993 156.496C982.572 155.943 982.373 155.567 982.528 154.77C982.949 152.58 983.878 150.389 983.635 148.176C983.214 144.459 981.51 141.272 978.457 138.993C975.801 137.002 973.035 135.143 970.115 133.55C966.641 131.669 963.322 129.589 960.202 127.133C959.25 126.38 958.188 125.805 957.015 125.495C951.461 123.968 945.885 122.663 940.132 123.659L940.043 123.681ZM783.204 166.963C783.337 168.91 784.465 170.061 785.063 171.455C785.793 173.092 785.594 175.084 784.532 176.257C782.452 178.536 778.956 177.916 777.407 174.951C776.654 173.491 775.968 171.964 775.371 170.415C774.265 167.582 774.021 164.728 775.15 161.785C775.636 160.502 776.345 159.329 776.831 158.045C778.358 154.173 779.929 150.345 782.208 146.849C784.642 143.109 786.944 139.281 789.621 135.696C795.042 128.438 801.039 121.756 807.721 115.715C813.895 110.138 819.537 104.098 824.737 97.6362C826.707 95.18 828.3 92.4361 830.247 89.9578C834.274 84.8241 837.461 79.1151 841.864 74.2691C845.98 69.755 850.472 65.7499 856.18 63.3822C862.774 60.6604 869.479 58.337 876.538 56.9208C882.247 55.7923 887.955 54.8851 893.709 54.3097C902.67 53.4246 911.654 53.5353 920.461 55.7038C927.918 57.5404 935.22 59.9302 941.681 64.2894C946.084 67.2546 950.554 70.1312 954.448 73.7823C956.993 76.1721 959.471 78.6283 962.237 80.7526C965.224 83.0096 968.013 85.5101 970.646 88.1433C976.974 94.4276 983.59 100.402 990.317 106.266C994.167 109.607 998.371 112.528 1002.29 115.803C1005.41 118.414 1008.33 121.224 1011.69 123.548C1014.79 125.694 1017.78 127.996 1020.63 130.496C1023.11 132.665 1025.46 135.032 1026.72 138.108C1028.58 142.711 1027.87 147.136 1025.26 151.296C1024.06 153.199 1022.34 153.93 1020.14 153.553C1019.08 153.376 1018 153.199 1017.07 152.624C1016.05 152.027 1015.61 152.314 1015.06 153.288C1012.93 157.05 1010.76 160.789 1008.55 164.462C1006.25 168.268 1004.04 172.074 1002.4 176.257C1000.16 181.966 999.721 187.962 999.5 193.981C999.168 202.301 1000.08 210.577 1000.25 218.875C1000.41 226.354 999.854 233.767 997.575 240.892C994.366 250.872 988.879 259.679 983.015 268.264C980.492 271.96 977.727 275.5 975.669 279.505C975.403 280.036 974.717 280.767 975.16 281.165C975.691 281.63 976.31 280.811 976.819 280.479C982.506 276.739 987.684 272.38 992.087 267.202C995.716 262.932 998.925 258.329 1001 253.04C1003.55 246.535 1005.23 239.742 1006.91 232.992C1009.41 222.969 1012.49 213.188 1016.45 203.673C1018.77 198.097 1020.39 192.299 1021.89 186.48C1023.49 180.417 1024.5 174.221 1025.63 168.069C1027.18 159.594 1028.35 151.097 1028.95 142.512C1029.62 133.063 1029.46 123.614 1028.49 114.166C1027.69 106.554 1025.96 99.2072 1022.96 92.1706C1021.1 87.8335 1018.42 83.9832 1016.01 79.956C1011.47 72.3882 1006.65 64.9975 1001.03 58.16C998.571 55.1727 996.092 52.2297 993.769 49.1539C991.6 46.3216 989.432 43.4671 986.865 40.9887C983.612 37.8687 980.824 34.3725 977.948 30.9427C974.961 27.3801 971.708 23.9945 967.747 21.5383C963.211 18.7281 958.586 16.0285 953.807 13.5944C948.518 10.9169 943.053 8.7484 937.167 7.92967C933.958 7.46498 930.728 7.19945 927.564 8.3501C923.293 9.89905 919.332 12.1118 915.327 14.1697C909.441 17.1791 903.555 20.0779 896.983 21.4056C892.226 22.3571 887.469 22.2243 882.778 21.2285C878.131 20.2328 873.727 18.374 869.39 16.471C865.297 14.6787 861.159 13.1297 856.667 12.8421C854.388 12.6872 852.109 12.8421 849.83 13.0191C844.851 13.351 840.47 15.2319 836.487 18.02C830.645 22.1136 825.689 27.2473 821.241 32.7793C817.59 37.3376 814.315 42.2058 810.841 46.919C807.168 51.8978 803.495 56.8544 799.755 61.789C796.746 65.7499 794.135 69.9984 791.347 74.1142C790.13 75.9066 788.869 77.6547 788.183 79.7347C786.081 86.0411 783.447 92.1263 781.611 98.5213C779.796 104.894 777.385 111.09 775.548 117.485C773.534 124.477 772.539 131.625 771.897 138.794C771.344 145.189 771.078 151.628 771.676 158.067C772.074 162.183 772.362 166.321 773.18 170.393C774.906 178.801 776.765 187.166 779.31 195.397C780.704 199.933 782.584 204.005 785.24 207.855C786.28 209.36 787.298 210.865 788.227 212.436C793.936 222.238 798.671 232.55 803.451 242.795C807.655 251.801 812.279 260.542 818.32 268.464C818.586 268.818 818.741 269.349 819.515 269.371C818.918 267.512 818.387 265.786 817.833 264.082C816.108 258.794 814.227 253.571 811.616 248.637C809.89 245.362 807.434 242.574 805.619 239.365C802.986 234.652 800.463 229.917 799.047 224.65C798.206 221.508 797.786 218.3 797.277 215.113C796.171 207.899 794.489 200.774 793.493 193.538C792.475 186.17 790.484 179.089 787.519 172.274C786.612 170.194 785.284 168.423 783.182 166.963H783.204ZM956.683 93.9187C958.387 93.9408 960.533 93.0999 962.68 92.1927C962.923 92.082 963.322 92.0599 963.299 91.6837C963.299 91.4182 963.012 91.3297 962.768 91.2191C960.644 90.1791 958.962 88.5637 957.458 86.7714C955.09 83.939 952.944 80.9075 950.134 78.4734C946.969 75.7295 943.783 73.0299 939.534 71.9899C934.666 70.8171 929.71 70.0648 924.82 68.8256C916.61 66.7456 908.202 66.2588 899.749 66.2588C899.24 66.2588 898.931 66.4137 898.665 66.8784C897.824 68.4052 896.674 68.6265 895.324 67.5422C894.859 67.1882 894.483 66.7677 893.797 66.8341C891.562 67.0554 889.327 67.2546 887.225 68.0733C880.565 70.6401 873.75 72.7201 866.956 74.8665C863.925 75.8402 860.761 76.7474 857.574 76.4598C856.026 76.327 855.583 76.9244 855.163 78.0087C855.052 78.3185 854.941 78.6283 854.831 78.9602C854.543 79.8011 854.189 80.6419 853.149 80.7526C852.043 80.8853 851.556 80.0445 851.091 79.2257C850.383 77.9866 850.228 77.9645 849.255 79.0487C847.551 80.9738 845.825 82.899 844.209 84.8905C841.908 87.7229 839.695 90.6216 837.461 93.4982C837.239 93.7859 836.686 94.4055 837.638 94.3612C839.983 94.2506 842.373 94.1842 844.409 92.7016C845.493 91.9272 846.732 91.4403 847.993 90.9978C849.564 90.4446 850.892 90.865 852.109 91.9493C853.215 92.945 853.923 94.2063 854.72 95.4012C855.583 96.7068 856.402 98.123 857.862 98.8532C860.672 100.269 863.615 101.243 866.824 101C871.891 100.601 876.936 100.823 882.003 100.933C887.225 101.044 892.381 100.712 896.873 97.4813C898.046 96.6404 899.263 96.8838 900.214 98.0345C901.298 99.34 902.648 99.7604 904.219 99.9817C905.303 100.114 906.365 100.092 907.45 100.137C911.588 100.291 915.703 100.446 919.863 100.026C924.776 99.5392 929.511 98.5434 934.158 97.0166C937.167 96.0208 940.043 94.8702 942.146 92.2591C943.473 90.5995 944.336 90.5773 946.328 91.4403C946.748 91.6174 947.146 91.8386 947.567 92.0157C950.244 93.0778 952.944 94.0072 956.573 93.8965L956.683 93.9187Z" fill="#040101"/>
<path d="M976.842 292.03C977.528 291.454 978.346 291.189 979.209 291.034C978.612 291.809 977.749 292.008 976.842 292.03Z" fill="#FD8065"/>
<path d="M973.766 293.601C973.965 293.18 974.319 293.048 974.761 293.092C974.562 293.535 974.23 293.712 973.766 293.601Z" fill="#FD8065"/>
<path d="M976.244 292.339C976.355 292.052 976.576 291.985 976.842 292.052C976.731 292.317 976.554 292.494 976.244 292.339Z" fill="#FD8065"/>
<path d="M975.734 292.583C975.823 292.295 976 292.229 976.265 292.34C976.177 292.627 976 292.716 975.734 292.583Z" fill="#FD8065"/>
<path d="M975.248 292.826C975.314 292.539 975.491 292.472 975.757 292.561C975.691 292.871 975.536 292.937 975.248 292.826Z" fill="#FD8065"/>
<path d="M974.74 293.092C974.807 292.804 974.984 292.738 975.249 292.826C975.183 293.136 975.006 293.203 974.74 293.092Z" fill="#FD8065"/>
<path d="M1006.87 262.931C1006.8 262.754 1006.87 262.644 1007.05 262.577C1007.11 262.777 1007.07 262.887 1006.87 262.931Z" fill="#FD8065"/>
<path d="M973.367 293.822C973.411 293.579 973.544 293.534 973.765 293.601C973.721 293.844 973.588 293.91 973.367 293.822Z" fill="#FD8065"/>
<path d="M956.682 93.9186C953.053 94.0293 950.354 93.0999 947.676 92.0378C947.256 91.8607 946.857 91.6395 946.437 91.4624C944.446 90.5994 943.583 90.6216 942.255 92.2812C940.153 94.8923 937.276 96.065 934.267 97.0387C929.62 98.5876 924.863 99.5612 919.973 100.048C915.813 100.468 911.697 100.336 907.559 100.159C906.475 100.114 905.413 100.159 904.329 100.004C902.757 99.8046 901.386 99.3621 900.323 98.0565C899.372 96.9059 898.133 96.6625 896.982 97.5033C892.49 100.734 887.357 101.066 882.113 100.955C877.045 100.845 872 100.623 866.933 101.022C863.725 101.265 860.782 100.269 857.971 98.8753C856.511 98.145 855.692 96.7289 854.829 95.4233C854.033 94.2063 853.325 92.945 852.218 91.9714C851.001 90.8871 849.674 90.4667 848.103 91.0199C846.841 91.4624 845.602 91.9492 844.518 92.7237C842.482 94.2063 840.092 94.2727 837.747 94.3833C836.795 94.4276 837.327 93.808 837.57 93.5203C839.805 90.6437 842.018 87.7449 844.319 84.9126C845.934 82.9211 847.66 80.9959 849.364 79.0708C850.337 77.9644 850.492 78.0087 851.2 79.2478C851.665 80.0666 852.13 80.8853 853.258 80.7747C854.276 80.664 854.652 79.8232 854.94 78.9823C855.051 78.6725 855.139 78.3406 855.272 78.0308C855.692 76.9465 856.113 76.3269 857.684 76.4818C860.892 76.7695 864.034 75.8623 867.066 74.8886C873.859 72.7201 880.674 70.6401 887.335 68.0954C889.459 67.2766 891.694 67.0775 893.906 66.8562C894.57 66.7898 894.969 67.2103 895.433 67.5643C896.783 68.6486 897.934 68.4494 898.775 66.9005C899.04 66.4137 899.35 66.2809 899.859 66.2809C908.311 66.2809 916.72 66.7456 924.929 68.8477C929.797 70.0869 934.754 70.8392 939.644 72.012C943.892 73.0299 947.079 75.7295 950.243 78.4955C953.053 80.9296 955.2 83.9611 957.567 86.7934C959.072 88.5858 960.731 90.2011 962.878 91.2411C963.099 91.3518 963.387 91.4403 963.409 91.7058C963.409 92.082 963.033 92.1041 962.789 92.2148C960.643 93.122 958.474 93.9629 956.793 93.9408L956.682 93.9186Z" fill="#FDFCFC"/>
<path d="M999.655 273.885C999.655 274.239 999.478 274.372 999.146 274.394C999.146 274.04 999.279 273.863 999.655 273.885Z" fill="#FD8065"/>
<path d="M940.112 123.825C945.895 122.829 951.456 124.134 957.018 125.661C958.192 125.993 959.256 126.546 960.208 127.298C963.31 129.754 966.634 131.833 970.135 133.714C973.059 135.285 975.829 137.165 978.488 139.156C981.523 141.435 983.252 144.621 983.673 148.337C983.916 150.55 982.986 152.74 982.565 154.93C982.41 155.727 982.631 156.103 983.03 156.656C986.553 161.39 990.032 166.191 991.428 172.054C992.602 176.987 992.668 181.987 992.004 187.031C991.627 189.907 991.804 192.827 991.959 195.726C992.137 199.332 992.137 202.938 992.07 206.544C991.982 211.234 992.469 215.924 992.07 220.614C991.45 227.937 989.744 235.017 987.24 241.919C986.553 243.8 985.888 245.658 985.268 247.561C983.562 252.848 980.393 257.45 978.178 262.494C977.225 264.662 975.452 266.343 974.189 268.357C971.619 272.472 968.65 276.321 966.412 280.657C963.155 286.962 960.585 293.577 957.838 300.126C954.78 307.449 951.013 314.373 945.208 320.059C941.574 323.621 938.605 327.846 934.817 331.298C931.515 334.329 928.302 337.492 924.802 340.28C920.437 343.775 915.562 346.408 910.067 347.824C905.968 348.886 902.024 348.488 898.014 347.426C893.405 346.231 888.752 345.589 883.944 345.788C878.405 346.01 873.265 344.306 868.545 341.541C866.75 340.479 865.044 339.041 863.759 337.404C860.48 333.222 856.758 329.351 854.121 324.727C850.642 318.621 846.565 312.891 843.153 306.785C840.118 301.365 837.37 295.745 835.221 289.905C832.252 281.808 828.951 273.821 826.026 265.702C824.364 261.1 822.813 256.454 821.018 251.897C819.268 247.45 816.919 243.379 814.15 239.508C808.455 231.521 805.309 222.628 803.869 212.982C803.16 208.181 803.093 203.402 803.16 198.602C803.204 194.907 802.207 191.434 800.833 188.093C799.039 183.779 798.064 179.244 796.779 174.797C796.025 172.209 795.981 169.598 796.978 167.076C798.197 163.979 800.39 161.634 803.271 159.952C803.802 159.642 804.113 159.333 804.246 158.669C805.442 153.315 807.813 148.514 811.424 144.377C816.166 138.935 821.705 134.422 828.375 131.634C834.047 129.245 839.963 127.829 846.322 128.183C855.34 128.714 863.626 131.568 871.802 135.019C875.015 136.369 878.161 137.895 881.064 139.842C882.504 140.793 883.346 141.944 883.833 143.714C886.116 152.143 889.417 160.129 895.222 166.855C898.413 170.549 899.454 174.775 899.077 179.664C898.656 185.129 897.416 190.372 896.241 195.681C895.377 199.509 896.02 203.27 896.84 207.031C897.416 209.619 898.147 212.163 899.077 214.663C899.986 217.119 899.853 219.73 899.986 222.296C900.03 223.159 900.008 224.044 900.252 224.884C900.34 225.194 900.385 225.592 900.828 225.592C901.204 225.592 901.382 225.26 901.47 224.929C901.869 223.667 901.891 222.384 901.758 221.101C901.271 216.3 901.736 211.566 903.021 206.92C903.509 205.194 903.62 203.402 903.841 201.655C904.395 197.429 903.509 193.292 903.176 189.133C903.043 187.429 902.866 185.726 902.955 184.045C903.176 179.686 902.645 175.328 902.623 170.97C902.623 169.996 902.357 169.089 901.869 168.248C899.454 164.067 897.305 159.731 896.02 155.085C894.269 148.758 894.579 142.475 897.925 136.656C898.856 135.019 900.318 133.603 902.046 132.785C907.408 130.24 912.77 127.674 918.62 126.413C925.644 124.909 932.689 123.449 940.023 123.847L940.112 123.825Z" fill="#E04993"/>
<path d="M783.377 166.895C785.477 168.377 786.803 170.123 787.71 172.202C790.65 179.012 792.64 186.087 793.679 193.45C794.696 200.68 796.354 207.8 797.46 215.008C797.946 218.192 798.388 221.398 799.228 224.537C800.643 229.822 803.163 234.553 805.794 239.241C807.585 242.447 810.061 245.233 811.786 248.505C814.372 253.436 816.273 258.654 817.998 263.938C818.551 265.663 819.103 267.388 819.678 269.223C818.882 269.223 818.75 268.67 818.484 268.316C812.449 260.401 807.828 251.667 803.628 242.668C798.83 232.409 794.121 222.127 788.417 212.332C787.511 210.762 786.472 209.259 785.433 207.755C782.802 203.908 780.923 199.84 779.508 195.307C776.965 187.082 775.108 178.724 773.384 170.322C772.544 166.254 772.279 162.119 771.881 158.007C771.262 151.573 771.527 145.138 772.102 138.748C772.721 131.562 773.738 124.443 775.749 117.456C777.584 111.066 779.994 104.875 781.807 98.5072C783.62 92.1172 786.273 86.0147 788.373 79.7353C789.058 77.6569 790.341 75.9102 791.535 74.1192C794.32 70.0067 796.929 65.7614 799.936 61.8037C803.672 56.873 807.342 51.9202 811.012 46.9454C814.483 42.2358 817.755 37.3936 821.403 32.8167C825.846 27.267 830.776 22.1594 836.635 18.069C840.614 15.283 844.992 13.4036 849.966 13.072C852.243 12.9172 854.52 12.7624 856.798 12.8951C861.308 13.1825 865.42 14.7303 869.51 16.5212C873.843 18.4227 878.242 20.3021 882.885 21.275C887.572 22.27 892.325 22.4026 897.078 21.4519C903.622 20.1252 909.525 17.2288 915.406 14.2217C919.43 12.1655 923.365 9.95439 927.632 8.40666C930.793 7.25691 934.021 7.54434 937.226 7.98655C943.107 8.82676 948.568 10.9715 953.852 13.6469C958.627 16.079 963.248 18.7765 967.78 21.5845C971.737 24.0388 974.987 27.4217 977.972 30.9815C980.846 34.4087 983.631 37.9021 986.881 41.0197C989.468 43.4961 991.612 46.3484 993.779 49.1785C996.122 52.2519 998.598 55.1926 1001.03 58.1775C1006.65 65.0097 1011.44 72.3946 1016 79.9564C1018.41 83.9805 1021.08 87.8057 1022.94 92.1615C1025.95 99.1926 1027.67 106.533 1028.47 114.139C1029.44 123.581 1029.59 133.022 1028.93 142.463C1028.33 151.042 1027.16 159.532 1025.61 168.001C1024.49 174.17 1023.47 180.338 1021.88 186.397C1020.35 192.212 1018.76 198.005 1016.44 203.577C1012.46 213.084 1009.39 222.857 1006.91 232.873C1005.23 239.617 1003.55 246.405 1001.01 252.905C998.952 258.19 995.724 262.789 992.099 267.056C987.721 272.23 982.526 276.586 976.844 280.322C976.336 280.654 975.717 281.472 975.186 281.008C974.744 280.61 975.407 279.88 975.694 279.349C977.773 275.37 980.536 271.832 983.034 268.117C988.893 259.538 994.376 250.738 997.581 240.767C999.881 233.625 1000.41 226.218 1000.26 218.767C1000.1 210.475 999.195 202.206 999.505 193.892C999.748 187.878 1000.17 181.908 1002.4 176.182C1004.04 172.025 1006.25 168.2 1008.55 164.397C1010.78 160.704 1012.95 156.99 1015.05 153.231C1015.58 152.258 1016.04 151.971 1017.06 152.567C1017.99 153.12 1019.07 153.319 1020.13 153.496C1022.32 153.872 1024.04 153.142 1025.24 151.241C1027.85 147.084 1028.55 142.64 1026.7 138.063C1025.44 134.967 1023.09 132.624 1020.62 130.457C1017.79 127.958 1014.78 125.659 1011.69 123.514C1008.33 121.193 1005.41 118.385 1002.29 115.776C998.377 112.503 994.177 109.607 990.33 106.246C983.609 100.387 976.999 94.4167 970.676 88.1373C968.045 85.5062 965.237 83.0298 962.275 80.7524C959.489 78.6298 957.013 76.1755 954.493 73.7876C950.602 70.1393 946.136 67.265 941.737 64.3021C935.259 59.9464 927.985 57.5584 920.535 55.7232C911.758 53.5564 902.782 53.468 893.806 54.3303C888.058 54.883 882.332 55.7896 876.65 56.9393C869.598 58.3323 862.899 60.676 856.311 63.3956C850.607 65.7393 846.119 69.7413 842.007 74.274C837.586 79.1162 834.402 84.8429 830.401 89.9504C828.455 92.4268 826.863 95.1906 824.896 97.6228C819.7 104.079 814.063 110.115 807.894 115.687C801.218 121.723 795.205 128.401 789.81 135.653C787.135 139.257 784.836 143.06 782.404 146.797C780.149 150.268 778.557 154.115 777.032 157.985C776.523 159.245 775.838 160.439 775.351 161.721C774.224 164.662 774.489 167.514 775.573 170.344C776.169 171.892 776.855 173.418 777.607 174.877C779.154 177.862 782.647 178.481 784.725 176.182C785.787 175.01 785.985 173.042 785.256 171.384C784.637 170.013 783.531 168.841 783.399 166.895H783.377Z" fill="#FF3E50"/>
</svg>
