<svg xmlns="http://www.w3.org/2000/svg" width="133" height="51" viewBox="0 0 133 51" fill="none">
  <g clip-path="url(#clip0_320_16)">
    <path d="M107.4 0H25.4675C11.6417 0 0.433594 11.2081 0.433594 25.0339C0.433594 38.8597 11.6417 50.0678 25.4675 50.0678H107.4C121.226 50.0678 132.434 38.8597 132.434 25.0339C132.434 11.2081 121.226 0 107.4 0Z" fill="#121212"/>
    <mask id="mask0_320_16" style="mask-type:luminance" maskUnits="userSpaceOnUse" x="20" y="14" width="93" height="22">
      <path d="M112.434 14.3291H20.4336V35.7392H112.434V14.3291Z" fill="white"/>
    </mask>
    <g mask="url(#mask0_320_16)">
      <path d="M31.4941 14.3291L20.4336 21.3948L25.9635 24.9284L31.4941 21.3948L37.024 24.9284L42.5539 21.3948L31.4941 14.3291Z" fill="url(#paint0_linear_320_16)"/>
      <path d="M42.5539 21.3945L31.4941 28.461L20.4336 21.3945V28.461L31.4941 35.5274L42.5539 28.461V21.3945Z" fill="url(#paint1_linear_320_16)"/>
      <path d="M80.0408 19.5186H76.3873C74.0589 19.5186 72.1719 21.4057 72.1719 23.734V26.123C72.1719 28.4514 74.0589 30.3385 76.3873 30.3385H80.0408C82.369 30.3385 84.2563 28.4514 84.2563 26.123V23.734C84.2563 21.4057 82.369 19.5186 80.0408 19.5186ZM81.4459 26.123C81.4459 26.8994 80.8165 27.5282 80.0408 27.5282H76.3873C75.6109 27.5282 74.9821 26.8986 74.9821 26.123V23.734C74.9821 22.9576 75.6117 22.3288 76.3873 22.3288H80.0408C80.8171 22.3288 81.4459 22.9576 81.4459 23.734V26.123Z" fill="white"/>
      <path d="M96.5225 19.6602H86.6866C86.1047 19.6602 85.6328 20.1321 85.6328 20.714V30.1987H88.4431V22.4704H91.2533V30.1987H94.0635V22.4704H95.82C96.4019 22.4704 96.8738 22.9424 96.8738 23.5243V30.1987H99.6842V22.8217C99.6842 21.0753 98.2682 19.6602 96.5225 19.6602Z" fill="white"/>
      <path d="M61.0664 22.8217V30.1987H63.8766V23.5243C63.8766 22.9424 64.3485 22.4704 64.9304 22.4704H71.2536V19.6602H64.2279C62.4814 19.6602 61.0664 21.0753 61.0664 22.8217Z" fill="white"/>
      <path d="M109.099 19.6602H101.512V22.4704H108.397C108.979 22.4704 109.451 22.9424 109.451 23.5243V23.8756H104.111C102.364 23.8756 100.949 25.2907 100.949 27.0372C100.949 28.7836 102.365 30.1987 104.111 30.1987H111.207C111.789 30.1987 112.261 29.7268 112.261 29.1449V22.8217C112.261 21.0753 110.846 19.6602 109.099 19.6602ZM109.389 27.4238H103.892C103.678 27.4238 103.505 27.2509 103.505 27.0372C103.505 26.8235 103.678 26.6505 103.892 26.6505H109.389C109.602 26.6505 109.775 26.8235 109.775 27.0372C109.775 27.2509 109.602 27.4238 109.389 27.4238Z" fill="white"/>
      <path d="M60.0871 19.7301H56.5326L52.7122 23.864V19.6602H49.832V30.1987H52.7122V25.9917L56.6763 30.1987H60.16L55.2681 24.9994L60.0871 19.7301Z" fill="white"/>
    </g>
  </g>
  <rect x="0.5" y="0.5" width="132" height="50" stroke="black"/>
  <rect x="0.5" y="0.5" width="132" height="50" stroke="black" stroke-opacity="0.2"/>
  <defs>
    <linearGradient id="paint0_linear_320_16" x1="31.4937" y1="14.3291" x2="31.4937" y2="24.9284" gradientUnits="userSpaceOnUse">
      <stop stop-color="#70DE2C"/>
      <stop offset="1" stop-color="#8EE558"/>
    </linearGradient>
    <linearGradient id="paint1_linear_320_16" x1="31.4937" y1="21.3945" x2="31.4937" y2="35.5274" gradientUnits="userSpaceOnUse">
      <stop stop-color="#70DE2C"/>
      <stop offset="1" stop-color="#8EE558"/>
    </linearGradient>
    <clipPath id="clip0_320_16">
      <rect width="133" height="51" fill="white"/>
    </clipPath>
  </defs>
</svg>