<svg xmlns="http://www.w3.org/2000/svg" width="161" height="51" viewBox="0 0 161 51" padding="20" fill="none">
  <g clip-path="url(#clip0_320_29)">
    <path d="M110 0H25.4341C11.627 0 0.434082 11.1929 0.434082 25C0.434082 38.8071 11.627 50 25.4341 50H110C123.807 50 135 38.8071 135 25C135 11.1929 123.807 0 110 0Z" fill="#121212"/>
    <mask id="mask0_320_29" style="mask-type:luminance" maskUnits="userSpaceOnUse" x="20" y="11" width="27" height="28">
      <path d="M46.9998 11.7172H20.4341V38.2829H46.9998V11.7172Z" fill="white"/>
    </mask>
    <g mask="url(#mask0_320_29)">
      <path d="M46.9998 25C46.9998 17.6641 41.0529 11.7172 33.717 11.7172C26.3811 11.7172 20.4341 17.6641 20.4341 25C20.4341 32.3359 26.3811 38.2828 33.717 38.2828C41.0529 38.2828 46.9998 32.3359 46.9998 25Z" fill="white"/>
      <path d="M37.87 30.9708H27.8511V20.2987H30.1435V28.9025H37.87V30.9708Z" fill="#030303"/>
      <path d="M37.8705 22.365C38.9998 22.365 39.9153 21.4395 39.9153 20.2979C39.9153 19.1562 38.9998 18.2307 37.8705 18.2307C36.7412 18.2307 35.8257 19.1562 35.8257 20.2979C35.8257 21.4395 36.7412 22.365 37.8705 22.365Z" fill="#030303"/>
    </g>
    <mask id="mask1_320_29" style="mask-type:luminance" maskUnits="userSpaceOnUse" x="57" y="16" width="58" height="18">
      <path d="M115 16.6396H57V33.3603H115V16.6396Z" fill="white"/>
    </mask>
    <g mask="url(#mask1_320_29)">
      <path d="M72.2592 33.0046H69.8809V21.4312H72.2592V33.0046Z" fill="white"/>
      <path d="M80.8518 21.2038C82.1647 21.2038 83.2372 21.6642 84.0683 22.5849C84.8981 23.5056 85.3143 24.6763 85.3143 26.0956V33.0033H82.9359V26.4578C82.9359 25.567 82.649 24.8305 82.075 24.2493C81.501 23.6683 80.792 23.3777 79.9466 23.3777C78.9948 23.3777 78.2176 23.6683 77.6137 24.2493C77.0099 24.8305 76.7074 25.567 76.7074 26.4578V33.0033H74.3291V21.431H76.7074V24.4203C77.0242 23.4243 77.5492 22.6387 78.2821 22.0647C79.0139 21.4908 79.8713 21.2038 80.853 21.2038H80.8518Z" fill="white"/>
      <path d="M92.7306 21.2038C94.5876 21.2038 96.0978 21.8686 97.26 23.1971C98.4222 24.5268 98.8982 26.1338 98.6865 28.0219H89.1063C89.2725 28.9582 89.703 29.7174 90.3977 30.2985C91.0924 30.8797 91.9294 31.1703 92.9111 31.1703C93.6656 31.1703 94.3412 30.9849 94.9379 30.6154C95.5346 30.2459 95.9985 29.7437 96.3309 29.1088L98.3242 29.9924C97.8113 30.9742 97.0783 31.7585 96.1276 32.348C95.1771 32.9375 94.0818 33.2317 92.843 33.2317C91.1068 33.2317 89.6492 32.6577 88.4714 31.511C87.2936 30.3643 86.7041 28.9366 86.7041 27.2303C86.7041 25.524 87.2816 24.0939 88.4367 22.9377C89.5918 21.7826 91.0219 21.205 92.7294 21.205L92.7306 21.2038ZM92.7306 23.2653C91.8541 23.2653 91.096 23.5331 90.4539 24.07C89.8118 24.6057 89.3849 25.304 89.1745 26.1649H96.2867C96.0906 25.304 95.6709 24.6057 95.03 24.07C94.3878 23.5343 93.6214 23.2653 92.7306 23.2653Z" fill="white"/>
      <path d="M105.259 21.2038C106.649 21.2038 107.781 21.5661 108.656 22.2907C109.532 23.0154 109.971 24.0581 109.971 25.4164V33.0045H107.592V29.9243C106.882 32.1292 105.455 33.2317 103.311 33.2317C102.314 33.2317 101.484 32.9339 100.82 32.3373C100.155 31.7406 99.8237 30.9598 99.8237 29.9936C99.8237 28.8613 100.223 28.0111 101.024 27.4455C101.824 26.8799 102.844 26.5284 104.081 26.3921L106.323 26.1649C107.169 26.0896 107.592 25.7117 107.592 25.0326C107.592 24.4741 107.377 24.0282 106.946 23.6969C106.516 23.3645 105.954 23.1983 105.259 23.1983C104.565 23.1983 103.949 23.3801 103.459 23.7423C102.968 24.1047 102.655 24.6332 102.519 25.3279L100.163 24.7611C100.375 23.6742 100.94 22.8097 101.862 22.1676C102.783 21.5267 103.915 21.205 105.259 21.205V21.2038ZM104.081 31.3053C105.063 31.3053 105.893 30.9765 106.572 30.3201C107.251 29.6636 107.591 28.8971 107.591 28.0207V27.3869C107.41 27.6895 106.972 27.8772 106.277 27.9525L104.08 28.224C103.506 28.3005 103.05 28.4691 102.71 28.7333C102.37 28.9976 102.201 29.3563 102.201 29.8095C102.201 30.2627 102.37 30.625 102.71 30.8964C103.05 31.1679 103.506 31.3042 104.08 31.3042L104.081 31.3053Z" fill="white"/>
      <path d="M68.2424 33.0046H57.2573V21.4312H59.7707V30.7626H68.2424V33.0046Z" fill="white"/>
      <path d="M112.212 21.2032C113.45 21.2032 114.453 20.1995 114.453 18.9612C114.453 17.723 113.45 16.7192 112.212 16.7192C110.973 16.7192 109.97 17.723 109.97 18.9612C109.97 20.1995 110.973 21.2032 112.212 21.2032Z" fill="white"/>
    </g>
  </g>
  <defs>
    <clipPath id="clip0_320_29">
      <rect width="135" height="50" fill="white"/>
    </clipPath>
  </defs>
</svg>