<svg width="40" height="40" viewBox="0 0 266 343" fill="none" xmlns="http://www.w3.org/2000/svg">
<path d="M249.907 218.615C249.673 219.381 249.46 220.125 249.226 220.891C248.737 221.551 248.652 222.359 248.396 223.125C247.418 226.146 246.461 229.188 245.503 232.209C244.929 233.145 244.44 234.102 244.312 235.208C243.695 236.442 243.057 237.676 242.44 238.91C241.951 239.867 241.376 240.782 241.313 241.888C240.951 242.93 240.611 243.973 240.249 245.037C239.121 247.483 237.994 249.951 236.845 252.397L236.803 252.461C236.632 252.525 236.569 252.631 236.632 252.801C236.42 252.844 236.398 252.972 236.441 253.142C236.015 253.95 235.611 254.759 235.186 255.567C234.611 256.035 234.399 256.758 234.016 257.354C232.718 259.46 231.144 261.332 229.676 263.311C229.336 263.311 229.187 263.481 229.187 263.821C228.974 263.779 228.91 263.927 228.889 264.098C228.57 264.523 228.251 264.927 227.953 265.353C227.506 265.651 227.187 266.034 226.996 266.523C226.464 267.119 225.932 267.714 225.4 268.31C221.805 272.288 217.55 275.458 212.955 278.159C212.104 278.649 211.105 278.862 210.403 279.627C210.211 279.564 210.062 279.627 209.977 279.819C209.147 279.968 208.36 280.223 207.701 280.776C207.424 280.712 207.233 280.776 207.127 281.053H207.148C206.893 280.946 206.722 281.031 206.637 281.287H206.659C206.403 281.202 206.233 281.287 206.169 281.542C205.914 281.457 205.744 281.542 205.68 281.797C205.255 281.776 204.914 281.882 204.723 282.287C204.51 282.223 204.382 282.287 204.34 282.499C202.872 282.818 201.489 283.478 199.979 283.606C199.787 283.606 199.638 283.818 199.66 284.052C196.511 291.796 192.214 298.965 188.449 306.39C186.662 309.9 184.024 312.835 181.641 315.92C181.301 316.367 180.939 316.792 180.663 317.282C177.897 322.153 173.855 325.855 169.75 329.556C166.154 332.79 162.219 335.428 158.113 337.896C151.157 342.087 143.754 343.363 135.798 341.448C132.309 340.619 128.756 340.066 125.225 339.385C123.842 339.13 122.438 339.151 121.055 339.193C117.248 339.278 113.482 338.938 109.717 338.406C105.994 337.874 102.675 336.236 99.3355 334.598C95.3787 332.662 92.8684 329.28 89.954 326.28C83.4019 319.494 78.7644 311.474 74.8501 303.007C74.0418 301.263 72.9781 299.667 72.0421 298.008C69.9573 294.285 68.0214 290.456 66.3834 286.52C64.2135 281.287 60.8098 276.947 57.4274 272.522C53.0451 266.778 48.4288 261.226 44.2806 255.312C38.4943 247.1 32.708 238.846 28.0917 229.911C24.7731 223.508 21.0503 217.296 18.0508 210.722C16.2213 206.744 14.562 202.66 12.69 198.703C11.52 196.214 10.0308 193.874 8.86078 191.385C4.66997 182.599 1.79809 173.451 0.67061 163.75C-0.605779 152.816 -0.0100997 142.009 2.03212 131.223C3.11705 125.5 4.22323 119.799 5.79745 114.162C7.58439 107.779 9.88188 101.568 11.9028 95.2493C14.1365 88.2929 16.6468 81.4215 19.3059 74.6353C22.4331 66.7002 26.5388 59.297 31.1976 52.1491C36.835 43.4695 43.1106 35.2792 49.5563 27.1952C51.4709 24.7913 53.8748 22.8128 55.917 20.5366C59.0441 17.069 62.7457 14.3034 66.4047 11.4953C70.8295 8.11281 76.0414 6.66621 81.4235 5.66635C86.0398 4.8154 90.4433 5.51743 94.8681 6.85767C99.9524 8.38936 104.675 10.9422 109.908 12.0271C113.759 12.8355 117.524 14.2396 121.523 14.1332C123.438 14.0907 125.353 13.9843 127.267 13.8141C129.331 13.6227 131.118 12.7079 132.926 11.708C137.457 9.19776 141.775 6.28328 146.519 4.15592C152.731 1.36909 159.304 -0.120064 166.154 0.00757746C171.005 0.0926717 175.578 1.47545 180.131 3.0497C187.917 5.73017 195.001 9.75087 201.872 14.2396C208.616 18.6432 214.678 23.834 220.465 29.4289C226.379 35.1728 231.825 41.3209 236.888 47.788C240.972 53 244.503 58.6163 247.971 64.2538C251.034 69.2318 253.353 74.5502 255.651 79.9111C257.459 84.1233 259.522 88.2291 260.969 92.5901C262.99 98.7382 263.905 105.078 264.734 111.46C265.415 116.693 265.309 121.969 265.564 127.224C265.734 130.819 265.926 134.393 265.819 137.988C265.777 139.945 265.67 141.902 265.585 143.859C265.351 147.327 265.096 150.795 264.862 154.241C263.671 162.282 262.522 170.324 260.607 178.216C259.501 182.748 258.31 187.236 257.012 191.704C255.331 197.554 253.821 203.447 252.226 209.34C251.992 209.701 251.821 210.084 251.949 210.531M172.409 118.906C165.389 118.523 158.624 119.905 151.859 121.373C146.243 122.586 141.095 125.054 135.947 127.5C134.287 128.287 132.883 129.67 131.99 131.223C128.778 136.818 128.48 142.86 130.16 148.944C131.394 153.411 133.436 157.581 135.776 161.602C136.244 162.41 136.5 163.282 136.5 164.218C136.5 168.409 137.031 172.579 136.819 176.791C136.734 178.429 136.904 180.067 137.032 181.684C137.351 185.683 138.18 189.661 137.67 193.725C137.457 195.427 137.351 197.128 136.883 198.788C135.649 203.255 135.202 207.787 135.67 212.424C135.798 213.658 135.776 214.892 135.393 216.105C135.287 216.424 135.138 216.721 134.777 216.743C134.372 216.743 134.33 216.381 134.223 216.062C133.989 215.254 134.011 214.403 133.968 213.573C133.841 211.105 133.968 208.595 133.096 206.234C132.202 203.83 131.501 201.383 130.947 198.894C130.16 195.299 129.565 191.661 130.373 187.981C131.522 182.896 132.713 177.833 133.096 172.579C133.458 167.877 132.458 163.793 129.394 160.261C123.821 153.794 120.651 146.136 118.46 138.009C117.992 136.307 117.184 135.222 115.801 134.286C113.014 132.414 109.993 130.946 106.909 129.649C99.0589 126.33 91.1028 123.586 82.4446 123.075C76.3605 122.714 70.6806 124.096 65.2134 126.394C58.8102 129.074 53.4918 133.435 48.9394 138.647C45.4719 142.626 43.1957 147.242 42.0469 152.39C41.898 153.028 41.6214 153.326 41.1109 153.624C38.3454 155.22 36.2393 157.475 35.0693 160.474C34.1333 162.878 34.1546 165.41 34.8779 167.899C36.133 172.175 37.069 176.536 38.7708 180.684C40.0898 183.896 41.0471 187.236 41.0045 190.789C40.9407 195.405 41.0045 200 41.6852 204.617C43.068 213.892 46.0888 222.465 51.556 230.124C54.1939 233.847 56.4701 237.761 58.1507 242.037C59.8738 246.419 61.3629 250.887 62.9584 255.312C65.7664 263.119 68.9149 270.799 71.7868 278.585C73.8503 284.201 76.4669 289.605 79.4026 294.817C82.6999 300.688 86.6142 306.198 89.9328 312.07C92.4643 316.516 96.0382 320.239 99.1866 324.259C100.42 325.834 102.058 327.216 103.782 328.237C108.313 330.897 113.248 332.535 118.566 332.322C123.161 332.152 127.65 332.747 132.075 333.896C135.904 334.896 139.712 335.3 143.647 334.279C148.923 332.918 153.603 330.386 157.794 327.025C161.155 324.344 164.219 321.302 167.41 318.388C171.047 315.069 173.898 311.006 177.387 307.581C182.96 302.092 186.577 295.455 189.512 288.413C192.129 282.116 194.618 275.756 197.745 269.693C199.894 265.544 202.744 261.821 205.212 257.865C206.425 255.929 208.126 254.333 209.041 252.227C211.168 247.377 214.211 242.952 215.849 237.867C216.423 236.038 217.082 234.251 217.742 232.443C220.167 225.805 221.784 218.998 222.379 211.956C222.762 207.446 222.294 202.936 222.379 198.426C222.443 194.959 222.443 191.491 222.273 188.023C222.145 185.237 221.954 182.428 222.316 179.663C222.932 174.813 222.89 170.005 221.762 165.261C220.422 159.623 217.082 155.007 213.7 150.454C213.296 149.922 213.104 149.561 213.253 148.795C213.657 146.689 214.551 144.583 214.317 142.455C213.913 138.881 212.275 135.818 209.339 133.627C206.786 131.712 204.127 129.925 201.319 128.394C197.979 126.585 194.788 124.586 191.789 122.224C190.874 121.501 189.853 120.948 188.725 120.65C183.386 119.182 178.025 117.927 172.494 118.884L172.409 118.906ZM21.6247 160.517C21.7523 162.389 22.8372 163.495 23.4116 164.835C24.1136 166.409 23.9222 168.324 22.9011 169.452C20.9014 171.643 17.5402 171.047 16.0511 168.196C15.3278 166.792 14.6684 165.324 14.094 163.835C13.0304 161.112 12.7964 158.368 13.8813 155.539C14.3493 154.305 15.03 153.177 15.498 151.943C16.9658 148.221 18.4763 144.54 20.6674 141.179C23.0075 137.584 25.2198 133.903 27.7939 130.457C33.0058 123.479 38.7709 117.055 45.1954 111.247C51.1306 105.886 56.5552 100.078 61.5544 93.8666C63.4477 91.5052 64.9794 88.8673 66.8514 86.4846C70.7231 81.5492 73.7865 76.0606 78.0198 71.4017C81.9766 67.0619 86.2951 63.2114 91.7835 60.9351C98.1229 58.3184 104.569 56.0847 111.355 54.7232C116.843 53.6382 122.332 52.766 127.863 52.2129C136.478 51.362 145.115 51.4683 153.582 53.5532C160.751 55.3189 167.771 57.6164 173.983 61.8073C178.216 64.658 182.514 67.4235 186.258 70.9337C188.704 73.2312 191.087 75.5926 193.746 77.6348C196.618 79.8047 199.298 82.2086 201.83 84.7402C207.914 90.7819 214.274 96.5258 220.741 102.163C224.443 105.376 228.485 108.184 232.25 111.332C235.25 113.842 238.058 116.544 241.291 118.778C244.269 120.841 247.141 123.054 249.886 125.458C252.268 127.543 254.523 129.819 255.736 132.776C257.523 137.201 256.842 141.456 254.332 145.455C253.183 147.285 251.524 147.987 249.418 147.625C248.396 147.455 247.354 147.285 246.461 146.731C245.482 146.157 245.057 146.434 244.525 147.37C242.482 150.986 240.398 154.581 238.27 158.113C236.058 161.772 233.931 165.431 232.356 169.452C230.208 174.94 229.782 180.705 229.57 186.492C229.251 194.491 230.123 202.447 230.293 210.424C230.442 217.615 229.91 224.742 227.719 231.592C224.634 241.186 219.359 249.653 213.721 257.907C211.296 261.46 208.637 264.864 206.659 268.714C206.403 269.225 205.744 269.927 206.169 270.31C206.68 270.756 207.275 269.969 207.765 269.65C213.232 266.055 218.21 261.864 222.443 256.886C225.932 252.78 229.017 248.355 231.016 243.271C233.463 237.016 235.079 230.485 236.696 223.997C239.1 214.36 242.057 204.957 245.865 195.81C248.099 190.449 249.652 184.875 251.098 179.28C252.63 173.451 253.608 167.494 254.693 161.58C256.182 153.433 257.31 145.264 257.884 137.009C258.522 127.926 258.374 118.842 257.438 109.758C256.672 102.44 255.012 95.377 252.119 88.612C250.332 84.4424 247.758 80.7408 245.44 76.869C241.079 69.5934 236.441 62.4881 231.038 55.9145C228.676 53.0426 226.294 50.2132 224.06 47.2562C221.975 44.5332 219.89 41.7889 217.423 39.4062C214.296 36.4067 211.615 33.0454 208.85 29.748C205.978 26.323 202.851 23.0681 199.043 20.7068C194.682 18.005 190.236 15.4096 185.641 13.0695C180.556 10.4954 175.302 8.41064 169.643 7.62352C166.559 7.17677 163.453 6.92149 160.411 8.02771C156.305 9.51686 152.497 11.6442 148.647 13.6227C142.988 16.5159 137.329 19.3027 131.011 20.5791C126.438 21.4939 121.864 21.3662 117.354 20.4089C112.886 19.4516 108.653 17.6646 104.484 15.8351C100.548 14.112 96.57 12.6228 92.2516 12.3462C90.0604 12.1973 87.8693 12.3462 85.6782 12.5164C80.8917 12.8355 76.6796 14.6438 72.8505 17.3243C67.2343 21.2599 62.4691 26.1953 58.1932 31.5137C54.6832 35.8961 51.5348 40.5763 48.1949 45.1075C44.6635 49.8941 41.1322 54.6594 37.537 59.4034C34.6439 63.2114 32.1336 67.2959 29.4532 71.2528C28.2832 72.9759 27.0706 74.6565 26.4111 76.6562C24.3902 82.7192 21.8587 88.5694 20.093 94.7175C18.3486 100.844 16.0299 106.801 14.2642 112.949C12.3283 119.671 11.371 126.543 10.7541 133.435C10.2223 139.583 9.96701 145.774 10.5414 151.965C10.9243 155.922 11.2008 159.9 11.9879 163.814C13.6472 171.898 15.4342 179.939 17.8806 187.853C19.2209 192.214 21.0291 196.129 23.5818 199.83C24.5817 201.277 25.5602 202.723 26.4537 204.234C31.9422 213.658 36.4946 223.572 41.0896 233.421C45.1315 242.08 49.5776 250.483 55.3851 258.099C55.6404 258.439 55.7894 258.949 56.5339 258.971C55.9595 257.184 55.449 255.524 54.9171 253.886C53.2578 248.802 51.4496 243.781 48.9394 239.037C47.2801 235.889 44.9188 233.208 43.1744 230.124C40.6429 225.593 38.2177 221.04 36.8563 215.977C36.0479 212.956 35.6437 209.871 35.1544 206.808C34.0908 199.873 32.474 193.023 31.5167 186.066C30.5381 178.982 28.6236 172.175 25.773 165.622C24.9008 163.623 23.6244 161.921 21.6034 160.517H21.6247ZM188.406 90.2926C190.044 90.3139 192.108 89.5055 194.171 88.6333C194.405 88.5269 194.788 88.5056 194.767 88.144C194.767 87.8887 194.49 87.8036 194.256 87.6972C192.214 86.6974 190.597 85.1444 189.151 83.4212C186.874 80.6982 184.811 77.7838 182.109 75.4437C179.067 72.8057 176.004 70.2104 171.919 69.2105C167.239 68.083 162.474 67.3597 157.773 66.1684C149.88 64.1687 141.797 63.7006 133.67 63.7006C133.181 63.7006 132.883 63.8496 132.628 64.2963C131.82 65.7642 130.713 65.9769 129.416 64.9345C128.969 64.5941 128.607 64.1899 127.948 64.2538C125.799 64.4665 123.651 64.658 121.63 65.4451C115.227 67.9128 108.674 69.9125 102.144 71.9761C99.2291 72.9121 96.1871 73.7843 93.1238 73.5078C91.6346 73.3801 91.2092 73.9545 90.805 74.9969C90.6986 75.2947 90.5922 75.5926 90.4858 75.9117C90.2093 76.7201 89.869 77.5285 88.8691 77.6348C87.8055 77.7625 87.3374 76.9541 86.8907 76.167C86.2099 74.9756 86.0611 74.9544 85.125 75.9968C83.487 77.8476 81.8277 79.6984 80.2748 81.613C78.0624 84.336 75.9351 87.1228 73.7865 89.8884C73.5737 90.165 73.0419 90.7606 73.9566 90.7181C76.2116 90.6117 78.5091 90.5479 80.4662 89.1226C81.5086 88.378 82.6999 87.91 83.9125 87.4845C85.4228 86.9527 86.6993 87.3569 87.8693 88.3993C88.9329 89.3566 89.6137 90.5692 90.3795 91.7179C91.2092 92.9731 91.9963 94.3346 93.4003 95.0366C96.102 96.3981 98.9313 97.3342 102.016 97.1001C106.887 96.7172 111.738 96.93 116.609 97.0363C121.63 97.1427 126.586 96.8236 130.905 93.7177C132.032 92.9093 133.202 93.1433 134.117 94.2495C135.159 95.5046 136.457 95.9088 137.968 96.1216C139.01 96.2492 140.031 96.2279 141.073 96.2705C145.051 96.4194 149.008 96.5683 153.008 96.1641C157.73 95.6961 162.283 94.7388 166.75 93.2709C169.643 92.3136 172.409 91.2074 174.43 88.6971C175.706 87.1016 176.536 87.0803 178.45 87.91C178.855 88.0802 179.237 88.2929 179.642 88.4631C182.216 89.4842 184.811 90.3777 188.3 90.2713L188.406 90.2926Z" fill="#040101"/>
<path d="M207.787 280.755C208.447 280.202 209.234 279.946 210.063 279.797C209.489 280.542 208.659 280.733 207.787 280.755Z" fill="#FD8065"/>
<path d="M204.828 282.266C205.02 281.861 205.36 281.734 205.785 281.776C205.594 282.202 205.275 282.372 204.828 282.266Z" fill="#FD8065"/>
<path d="M207.215 281.053C207.321 280.776 207.534 280.712 207.789 280.776C207.683 281.031 207.513 281.202 207.215 281.053Z" fill="#FD8065"/>
<path d="M206.723 281.287C206.808 281.01 206.978 280.947 207.233 281.053C207.148 281.33 206.978 281.415 206.723 281.287Z" fill="#FD8065"/>
<path d="M206.256 281.521C206.32 281.244 206.49 281.18 206.745 281.266C206.681 281.563 206.532 281.627 206.256 281.521Z" fill="#FD8065"/>
<path d="M205.764 281.776C205.827 281.5 205.998 281.436 206.253 281.521C206.189 281.819 206.019 281.883 205.764 281.776Z" fill="#FD8065"/>
<path d="M236.651 252.78C236.587 252.61 236.651 252.504 236.821 252.44C236.885 252.631 236.843 252.738 236.651 252.78Z" fill="#FD8065"/>
<path d="M204.443 282.478C204.486 282.244 204.614 282.201 204.826 282.265C204.784 282.499 204.656 282.563 204.443 282.478Z" fill="#FD8065"/>
<path d="M188.405 90.2926C184.916 90.399 182.321 89.5055 179.747 88.4844C179.343 88.3142 178.96 88.1014 178.556 87.9312C176.641 87.1016 175.811 87.1228 174.535 88.7184C172.514 91.2286 169.749 92.3561 166.855 93.2922C162.388 94.7813 157.814 95.7174 153.113 96.1854C149.114 96.5896 145.157 96.4619 141.179 96.2918C140.136 96.2492 139.115 96.2918 138.073 96.1428C136.562 95.9514 135.243 95.5259 134.222 94.2708C133.308 93.1645 132.116 92.9305 131.01 93.7389C126.692 96.8449 121.756 97.164 116.715 97.0576C111.843 96.9512 106.993 96.7385 102.121 97.1214C99.0365 97.3554 96.2072 96.3981 93.5055 95.0579C92.1015 94.3559 91.3144 92.9944 90.4847 91.7392C89.7189 90.5692 89.0381 89.3566 87.9745 88.4205C86.8045 87.3781 85.5281 86.9739 84.0177 87.5058C82.8051 87.9312 81.6139 88.3993 80.5715 89.1438C78.6143 90.5692 76.3168 90.633 74.0618 90.7394C73.1471 90.7819 73.6577 90.1862 73.8917 89.9097C76.0403 87.1441 78.1675 84.3573 80.38 81.6343C81.9329 79.7197 83.5922 77.8688 85.2302 76.018C86.1662 74.9544 86.3152 74.9969 86.9959 76.1882C87.4427 76.9754 87.8894 77.7625 88.9743 77.6561C89.9529 77.5497 90.3146 76.7414 90.5911 75.933C90.6975 75.6351 90.7826 75.316 90.9102 75.0182C91.3144 73.9758 91.7186 73.3801 93.229 73.529C96.3136 73.8056 99.3343 72.9334 102.249 71.9973C108.78 69.9125 115.332 67.9128 121.735 65.4664C123.777 64.6792 125.926 64.4878 128.053 64.275C128.691 64.2112 129.074 64.6154 129.521 64.9558C130.819 65.9982 131.925 65.8067 132.733 64.3176C132.988 63.8496 133.286 63.7219 133.776 63.7219C141.902 63.7219 149.986 64.1687 157.878 66.1897C162.558 67.381 167.323 68.1043 172.025 69.2318C176.109 70.2104 179.173 72.8057 182.215 75.4649C184.916 77.805 186.98 80.7195 189.256 83.4425C190.703 85.1657 192.298 86.7186 194.362 87.7185C194.574 87.8249 194.851 87.91 194.872 88.1653C194.872 88.5269 194.51 88.5482 194.276 88.6545C192.213 89.5268 190.128 90.3352 188.511 90.3139L188.405 90.2926Z" fill="#FDFCFC"/>
<path d="M229.72 263.311C229.72 263.651 229.55 263.779 229.23 263.8C229.23 263.46 229.358 263.29 229.72 263.311Z" fill="#FD8065"/>
<path d="M172.479 119.044C178.038 118.087 183.385 119.342 188.732 120.809C189.861 121.128 190.883 121.66 191.799 122.383C194.781 124.744 197.976 126.743 201.342 128.551C204.154 130.061 206.817 131.869 209.373 133.783C212.291 135.974 213.953 139.037 214.357 142.61C214.592 144.737 213.697 146.843 213.292 148.948C213.143 149.714 213.356 150.076 213.74 150.607C217.126 155.159 220.471 159.774 221.813 165.411C222.942 170.154 223.006 174.961 222.367 179.81C222.005 182.575 222.175 185.383 222.324 188.169C222.494 191.636 222.494 195.103 222.431 198.569C222.345 203.079 222.814 207.588 222.431 212.097C221.834 219.137 220.194 225.943 217.787 232.579C217.126 234.387 216.487 236.173 215.891 238.003C214.251 243.086 211.205 247.51 209.074 252.359C208.159 254.444 206.454 256.06 205.24 257.996C202.769 261.952 199.915 265.653 197.763 269.821C194.632 275.883 192.161 282.243 189.52 288.538C186.58 295.578 182.959 302.236 177.378 307.702C173.884 311.126 171.03 315.189 167.387 318.507C164.214 321.42 161.125 324.462 157.759 327.142C153.563 330.502 148.876 333.033 143.594 334.395C139.653 335.416 135.861 335.033 132.006 334.012C127.575 332.863 123.102 332.247 118.479 332.438C113.154 332.651 108.212 331.013 103.675 328.354C101.949 327.333 100.309 325.951 99.0735 324.377C95.9209 320.357 92.3422 316.635 89.8074 312.19C86.463 306.319 82.5435 300.811 79.2631 294.94C76.3448 289.729 73.7034 284.327 71.6372 278.712C68.7828 270.927 65.6088 263.249 62.797 255.443C61.1994 251.019 59.7083 246.553 57.9829 242.171C56.3001 237.896 54.0421 233.983 51.3794 230.261C45.9049 222.582 42.8801 214.032 41.4955 204.759C40.8139 200.143 40.75 195.549 40.8139 190.934C40.8565 187.382 39.8979 184.043 38.5772 180.831C36.8518 176.683 35.9145 172.323 34.679 168.048C33.9548 165.56 33.9122 163.05 34.8707 160.625C36.0423 157.647 38.1512 155.393 40.9204 153.776C41.4316 153.479 41.7298 153.181 41.8576 152.543C43.0079 147.396 45.2872 142.78 48.7594 138.803C53.3179 133.571 58.6432 129.232 65.055 126.552C70.5082 124.255 76.1957 122.894 82.3092 123.234C90.979 123.744 98.9457 126.488 106.806 129.806C109.895 131.103 112.92 132.571 115.71 134.443C117.095 135.357 117.904 136.463 118.373 138.165C120.567 146.268 123.741 153.947 129.322 160.412C132.389 163.964 133.39 168.027 133.028 172.727C132.623 177.981 131.431 183.022 130.302 188.126C129.471 191.806 130.089 195.422 130.877 199.037C131.431 201.526 132.133 203.972 133.028 206.375C133.901 208.736 133.774 211.246 133.902 213.713C133.944 214.543 133.923 215.393 134.157 216.202C134.242 216.499 134.285 216.882 134.711 216.882C135.073 216.882 135.243 216.563 135.329 216.244C135.712 215.032 135.733 213.798 135.606 212.565C135.137 207.949 135.584 203.398 136.82 198.931C137.288 197.272 137.395 195.549 137.608 193.869C138.14 189.807 137.288 185.829 136.969 181.831C136.841 180.193 136.671 178.555 136.756 176.939C136.969 172.749 136.458 168.559 136.436 164.369C136.436 163.433 136.181 162.561 135.712 161.752C133.39 157.733 131.324 153.564 130.089 149.097C128.406 143.014 128.704 136.974 131.92 131.38C132.815 129.806 134.221 128.445 135.883 127.658C141.037 125.212 146.192 122.745 151.816 121.532C158.569 120.086 165.342 118.682 172.393 119.065L172.479 119.044Z" fill="#E04993"/>
<path d="M21.7941 160.452C23.8133 161.876 25.0886 163.555 25.9601 165.553C28.7869 172.1 30.6998 178.903 31.6987 185.981C32.6764 192.932 34.2705 199.777 35.3332 206.707C35.8008 209.768 36.226 212.85 37.0336 215.868C38.3939 220.949 40.8169 225.498 43.3462 230.004C45.0678 233.086 47.4483 235.765 49.1062 238.911C51.5929 243.651 53.4208 248.668 55.0787 253.748C55.61 255.406 56.1414 257.064 56.694 258.829C55.9288 258.829 55.8013 258.297 55.5463 257.957C49.7438 250.347 45.3016 241.951 41.2632 233.299C36.651 223.436 32.1238 213.551 26.6402 204.134C25.7687 202.625 24.7698 201.18 23.7708 199.734C21.2415 196.036 19.4349 192.124 18.0746 187.767C15.6303 179.859 13.845 171.824 12.1871 163.746C11.3795 159.835 11.1244 155.86 10.7419 151.906C10.1467 145.721 10.4017 139.535 10.9543 133.392C11.5495 126.483 12.5272 119.638 14.4614 112.921C16.2255 106.778 18.5422 100.826 20.2851 94.7039C22.028 88.5607 24.5785 82.6938 26.5977 76.6568C27.2566 74.6587 28.4893 72.9794 29.637 71.2576C32.3151 67.3038 34.8232 63.2225 37.7138 59.4175C41.3058 54.6772 44.834 49.9156 48.3622 45.1328C51.6992 40.6051 54.8449 35.9499 58.3519 31.5497C62.624 26.2142 67.3637 21.3039 72.9962 17.3713C76.822 14.693 81.0303 12.8861 85.8126 12.5673C88.0018 12.4185 90.1911 12.2697 92.3803 12.3972C96.7162 12.6736 100.67 14.1615 104.602 15.8833C108.767 17.7114 112.997 19.5183 117.461 20.4536C121.966 21.4101 126.536 21.5377 131.106 20.6236C137.397 19.3482 143.072 16.5636 148.726 13.6726C152.594 11.6957 156.377 9.57004 160.48 8.08206C163.519 6.9767 166.622 7.25304 169.704 7.67818C175.358 8.48594 180.608 10.5479 185.687 13.1199C190.278 15.4582 194.721 18.0515 199.078 20.7512C202.882 23.1107 206.007 26.363 208.876 29.7854C211.639 33.0802 214.317 36.4388 217.442 39.436C219.928 41.8168 221.99 44.5589 224.073 47.2798C226.326 50.2345 228.706 53.0617 231.044 55.9313C236.443 62.4997 241.055 69.5995 245.434 76.8694C247.75 80.7382 250.322 84.4156 252.108 88.6032C254.998 95.3629 256.656 102.42 257.421 109.733C258.356 118.809 258.505 127.886 257.868 136.963C257.294 145.21 256.167 153.373 254.679 161.514C253.595 167.445 252.618 173.376 251.087 179.2C249.621 184.791 248.091 190.36 245.859 195.717C242.033 204.857 239.079 214.253 236.698 223.882C235.083 230.366 233.467 236.891 231.023 243.141C229.046 248.221 225.943 252.643 222.458 256.745C218.249 261.719 213.254 265.907 207.792 269.499C207.303 269.818 206.708 270.605 206.198 270.158C205.773 269.776 206.411 269.074 206.687 268.564C208.685 264.738 211.342 261.337 213.743 257.766C219.376 249.518 224.647 241.058 227.729 231.471C229.939 224.605 230.449 217.484 230.301 210.32C230.152 202.349 229.28 194.399 229.578 186.406C229.812 180.624 230.215 174.885 232.362 169.379C233.935 165.383 236.06 161.706 238.271 158.05C240.418 154.5 242.501 150.928 244.52 147.315C245.03 146.379 245.476 146.103 246.454 146.677C247.347 147.208 248.388 147.4 249.408 147.57C251.512 147.931 253.17 147.23 254.318 145.402C256.826 141.405 257.506 137.133 255.721 132.733C254.509 129.757 252.256 127.503 249.876 125.42C247.155 123.018 244.265 120.807 241.289 118.746C238.058 116.514 235.253 113.814 232.256 111.306C228.494 108.16 224.456 105.375 220.757 102.144C214.296 96.5108 207.941 90.7714 201.862 84.7345C199.333 82.2049 196.633 79.8241 193.785 77.6347C191.107 75.594 188.727 73.2345 186.304 70.9387C182.563 67.4313 178.27 64.6679 174.04 61.8195C167.812 57.6319 160.82 55.3362 153.657 53.5718C145.219 51.4887 136.59 51.4036 127.96 52.2326C122.434 52.7641 116.929 53.6356 111.467 54.741C104.687 56.0802 98.2465 58.3334 91.9127 60.948C86.429 63.2012 82.1144 67.0487 78.161 71.4064C73.9101 76.0616 70.8495 81.5672 67.0024 86.4775C65.1321 88.8583 63.6017 91.5154 61.71 93.8537C56.7152 100.061 51.2953 105.864 45.3653 111.221C38.9465 117.024 33.1653 123.443 27.9792 130.416C25.4074 133.88 23.1969 137.537 20.8589 141.129C18.691 144.466 17.1607 148.165 15.6941 151.885C15.2053 153.097 14.5464 154.245 14.0788 155.477C12.9948 158.305 13.2498 161.047 14.2913 163.768C14.8652 165.256 15.5241 166.722 16.2468 168.125C17.7346 170.995 21.0928 171.59 23.0907 169.379C24.1109 168.253 24.3022 166.361 23.6008 164.767C23.0057 163.449 21.9429 162.322 21.8154 160.452H21.7941Z" fill="#FF3E50"/>
</svg>
