<svg width="40" height="40" viewBox="0 0 204 205" fill="none" xmlns="http://www.w3.org/2000/svg">
<path d="M99.0996 122.1C94.2996 115.9 88.8996 110.3 82.8996 105.4C80.9996 103.8 80.9996 100.9 82.8996 99.4C85.9996 96.8 88.9996 94.1 91.6996 91.1C94.2996 88.4 96.7996 85.5 99.0996 82.5C100.7 80.5 103.7 80.4 105.3 82.5C110 88.7 115.5 94.3 121.5 99.2C123.4 100.8 123.4 103.7 121.5 105.2C118.4 107.7 115.5 110.5 112.8 113.4C110.2 116.1 107.7 119 105.4 122.1C103.8 124.1 100.7 124.1 99.0996 122.1Z" fill="url(#paint0_linear_566_2736)"/>
<path d="M203.8 102.5C201.3 103.9 199 104.9 196.6 106.2C176.8 115.9 158 127.3 142 142.3C128 155.4 116.6 172.2 108.5 190C107.3 192.6 105.6 196.6 104.4 199.3C103.8 200.9 103.1 202.5 102.3 204.2H102.2C95.9001 188.1 96.6001 170.5 102.3 154.4C106.5 142.5 113.4 131.4 122 122.4C130 113.8 140.2 106.9 151.2 102.5C166.3 96.4 183.2 95 198.7 100.4C200.3 101 201.9 101.7 203.4 102.4C203.5 102.4 203.7 102.4 203.8 102.5Z" fill="url(#paint1_linear_566_2736)"/>
<path d="M102.2 50.3C98.0002 62.2 91.1002 73.3 82.5002 82.3C74.5002 90.9 64.3002 97.8 53.3002 102.2C38.2002 108.3 21.3002 109.7 5.8002 104.3C4.2002 103.7 2.6002 103 1.1002 102.3C1.0002 102.2 0.800195 102.2 0.700195 102.1C3.2002 100.7 5.5002 99.7 7.9002 98.4C27.7002 88.7 46.5002 77.3 62.5002 62.3C76.5002 49.2 87.9002 32.4 96.0002 14.6C97.2002 12 98.9002 8.00002 100.1 5.30002C100.7 3.70002 101.4 2.10002 102.2 0.400024H102.3C108.6 16.6 107.9 34.2 102.2 50.3Z" fill="url(#paint2_linear_566_2736)"/>
<path d="M203.801 102.1C203.701 102.2 203.501 102.2 203.401 102.3C201.901 103.1 200.301 103.7 198.701 104.3C182.501 109.7 166.001 108.4 151.201 102.3C128.801 93.1 110.201 73.4 102.201 50.3C101.401 48 100.701 45.7 100.201 43.4C97.5005 32.7 97.0006 21.6 99.1006 10.8C99.8006 7.29999 100.801 3.8 102.201 0.5H102.301C104.301 5.1 106.301 10.1 108.501 14.7C116.701 32.5 128.101 49.3 142.001 62.4C158.001 77.4 176.801 88.8 196.601 98.5C199.001 99.7 201.401 100.7 203.801 102.1Z" fill="url(#paint3_linear_566_2736)"/>
<path d="M105.4 193.8C104.6 197.3 103.7 200.8 102.3 204.1H102.2C100.2 199.5 98.2002 194.5 96.0002 189.9C87.8002 172.1 76.4002 155.3 62.5002 142.2C46.5002 127.2 27.7002 115.8 7.9002 106.1C5.5002 104.8 3.1002 103.8 0.700195 102.4C0.800195 102.3 1.0002 102.3 1.1002 102.2C2.6002 101.4 4.2002 100.8 5.8002 100.2C22.0002 94.7 38.5002 96.1 53.3002 102.2C75.7002 111.4 94.3002 131.1 102.3 154.2C103.1 156.5 103.8 158.8 104.3 161.1C107 171.9 107.5 183 105.4 193.8Z" fill="url(#paint4_linear_566_2736)"/>
<defs>
<linearGradient id="paint0_linear_566_2736" x1="69.9647" y1="102.314" x2="136.048" y2="102.314" gradientUnits="userSpaceOnUse">
<stop stop-color="white"/>
<stop offset="1" stop-color="#808080"/>
</linearGradient>
<linearGradient id="paint1_linear_566_2736" x1="187.245" y1="88.6756" x2="87.1699" y2="187.899" gradientUnits="userSpaceOnUse">
<stop stop-color="white"/>
<stop offset="0.1479" stop-color="#F4F4F4"/>
<stop offset="0.407" stop-color="#D7D7D7"/>
<stop offset="0.7443" stop-color="#A8A8A8"/>
<stop offset="1" stop-color="#808080"/>
</linearGradient>
<linearGradient id="paint2_linear_566_2736" x1="15.3321" y1="117.611" x2="118.388" y2="15.69" gradientUnits="userSpaceOnUse">
<stop stop-color="white"/>
<stop offset="1" stop-color="#808080"/>
</linearGradient>
<linearGradient id="paint3_linear_566_2736" x1="87.5834" y1="78.5873" x2="178.711" y2="40.6883" gradientUnits="userSpaceOnUse">
<stop stop-color="white"/>
<stop offset="1" stop-color="#808080"/>
</linearGradient>
<linearGradient id="paint4_linear_566_2736" x1="93.4992" y1="122.502" x2="17.5855" y2="178.13" gradientUnits="userSpaceOnUse">
<stop stop-color="white"/>
<stop offset="0.108" stop-color="#F4F4F4"/>
<stop offset="0.2972" stop-color="#D7D7D7"/>
<stop offset="0.5434" stop-color="#A8A8A8"/>
<stop offset="0.7301" stop-color="#808080"/>
</linearGradient>
</defs>
</svg>
